<svg width="36" height="24" viewBox="0 0 36 24" fill="none" xmlns="http://www.w3.org/2000/svg">
<rect x="0.611206" y="0.5" width="34" height="23" rx="3.5" fill="#1F72CD" stroke="#D9D9D9"/>
<path fill-rule="evenodd" clip-rule="evenodd" d="M6.79232 8.5L3.61121 15.7467H7.41944L7.89155 14.5913H8.97069L9.4428 15.7467H13.6346V14.8649L14.0081 15.7467H16.1764L16.55 14.8462V15.7467H25.2678L26.3278 14.6213L27.3204 15.7467L31.798 15.7561L28.6069 12.1436L31.798 8.5H27.3898L26.3579 9.60463L25.3966 8.5H15.9128L15.0984 10.3704L14.2649 8.5H10.4646V9.35186L10.0419 8.5H6.79232ZM19.8106 9.52905H24.8167L26.3479 11.2316L27.9284 9.52905H29.4596L27.1331 12.1426L29.4596 14.726H27.859L26.3278 13.0036L24.7392 14.726H19.8106V9.52905ZM21.0468 11.555V10.6057V10.6048H24.1705L25.5335 12.1229L24.1101 13.6493H21.0468V12.613H23.7779V11.555H21.0468ZM7.52919 9.52905H9.3855L11.4955 14.4431V9.52905H13.529L15.1588 13.0524L16.6608 9.52905H18.6842V14.7291H17.453L17.4429 10.6544L15.648 14.7291H14.5467L12.7417 10.6544V14.7291H10.2089L9.72876 13.5633H7.13459L6.65541 14.728H5.29837L7.52919 9.52905ZM7.57754 12.4856L8.43222 10.4089L9.28591 12.4856H7.57754Z" fill="white"/>
</svg>
