<svg width="19" height="18" viewBox="0 0 19 18" fill="none" xmlns="http://www.w3.org/2000/svg">
<path d="M12.7247 11.5477L12.2692 12.0272C12.2692 12.0272 11.1866 13.167 8.23155 10.0559C5.27657 6.94484 6.35915 5.80507 6.35915 5.80507L6.64597 5.50311C7.35255 4.75924 7.41915 3.56497 6.80269 2.6931L5.54171 0.90961C4.77873 -0.1695 3.30441 -0.31205 2.4299 0.60864L0.860305 2.26114C0.426685 2.71766 0.136105 3.30945 0.171345 3.96594C0.261495 5.64546 0.979165 9.259 4.98381 13.4752C9.23055 17.9462 13.2153 18.1239 14.8448 17.9631C15.3602 17.9122 15.8084 17.6343 16.1696 17.254L17.5902 15.7584C18.5491 14.7489 18.2787 13.0182 17.0518 12.312L15.1413 11.2123C14.3357 10.7486 13.3543 10.8848 12.7247 11.5477Z" fill="white"/>
</svg>
