<svg width="36" height="24" viewBox="0 0 36 24" fill="none" xmlns="http://www.w3.org/2000/svg">
<rect x="0.611206" y="0.5" width="34" height="23" rx="3.5" fill="white" stroke="#D9D9D9"/>
<path d="M15.1112 23L34.1112 17.25V20C34.1112 21.6569 32.7681 23 31.1112 23H15.1112Z" fill="#FD6020"/>
<path fill-rule="evenodd" clip-rule="evenodd" d="M30.5049 9.11084C31.5502 9.11084 32.1251 9.59438 32.1251 10.5077C32.1774 11.2062 31.707 11.7972 31.0798 11.9046L32.4909 13.8925H31.3934L30.1913 11.9584H30.0868V13.8925H29.1983V9.11084H30.5049ZM30.0868 11.3137H30.3481C30.923 11.3137 31.1843 11.045 31.1843 10.5615C31.1843 10.1317 30.923 9.86304 30.3481 9.86304H30.0868V11.3137ZM26.1147 13.8925H28.6234V13.0866H27.0032V11.7972H28.5711V10.9913H27.0032V9.91674H28.6234V9.11084H26.1147V13.8925ZM23.5014 12.3345L22.2993 9.11084H21.3586L23.2924 14H23.7627L25.6965 9.11084H24.7558L23.5014 12.3345ZM12.8917 11.5286C12.8917 12.8717 13.937 14 15.2436 14C15.6617 14 16.0276 13.8925 16.3934 13.7314V12.6568C16.1321 12.9792 15.7662 13.1941 15.3481 13.1941C14.5119 13.1941 13.8324 12.5494 13.8324 11.6897V11.5823C13.7802 10.7227 14.4596 9.97048 15.2959 9.91675C15.714 9.91675 16.1321 10.1317 16.3934 10.454V9.37948C16.0798 9.16458 15.6617 9.11085 15.2959 9.11085C13.937 9.0034 12.8917 10.1317 12.8917 11.5286ZM11.2715 10.9376C10.7488 10.7227 10.592 10.6152 10.592 10.3466C10.6443 10.0242 10.9056 9.75557 11.2192 9.8093C11.4805 9.8093 11.7419 9.97048 11.9509 10.1854L12.4213 9.54066C12.0554 9.2183 11.5851 9.00339 11.1147 9.00339C10.383 8.94967 9.75579 9.54066 9.70353 10.2928V10.3466C9.70353 10.9913 9.96485 11.3674 10.8011 11.636C11.0101 11.6897 11.2192 11.7972 11.4283 11.9046C11.5851 12.0121 11.6896 12.1733 11.6896 12.3882C11.6896 12.7643 11.376 13.0866 11.0624 13.0866H11.0101C10.592 13.0866 10.2262 12.818 10.0694 12.4419L9.49447 13.0329C9.80806 13.6239 10.4352 13.9463 11.0624 13.9463C11.8986 14 12.5781 13.3553 12.6304 12.4956V12.3345C12.5781 11.6897 12.3168 11.3674 11.2715 10.9376ZM8.24012 13.8925H9.12862V9.11084H8.24012V13.8925ZM4.11121 9.11086H5.41782H5.67915C6.9335 9.16458 7.92653 10.2391 7.87427 11.5286C7.87427 12.227 7.56068 12.8717 7.03803 13.3553C6.56765 13.7314 5.99274 13.9463 5.41782 13.8926H4.11121V9.11086ZM5.26103 13.0866C5.67915 13.1404 6.14953 12.9792 6.46312 12.7105C6.77671 12.3882 6.9335 11.9584 6.9335 11.4748C6.9335 11.045 6.77671 10.6152 6.46312 10.2928C6.14953 10.0242 5.67915 9.86302 5.26103 9.91674H4.99971V13.0866H5.26103Z" fill="black"/>
<path fill-rule="evenodd" clip-rule="evenodd" d="M19.059 9C17.7523 9 16.6548 10.0745 16.6548 11.4714C16.6548 12.8146 17.7001 13.9429 19.059 13.9966C20.4178 14.0503 21.4631 12.9221 21.5154 11.5252C21.4631 10.1283 20.4178 9 19.059 9V9Z" fill="#FD6020"/>
</svg>
