<svg width="25" height="18" viewBox="0 0 25 18" fill="none" xmlns="http://www.w3.org/2000/svg">
<path d="M3.47632 0.5C1.66117 0.5 0.169678 1.99148 0.169678 3.80664V14.1934C0.169678 16.0085 1.66117 17.5 3.47632 17.5H20.8611C22.6762 17.5 24.1677 16.0085 24.1677 14.1934V3.80664C24.1677 1.99148 22.6762 0.5 20.8611 0.5H3.47632ZM4.91187 4.5C5.16704 4.49519 5.41439 4.58812 5.60327 4.75977L10.4314 9.12109C11.3727 9.97205 12.9744 9.97205 13.9158 9.12109L18.7419 4.75977C18.9321 4.58789 19.181 4.4956 19.4373 4.50195C19.574 4.50493 19.7087 4.53593 19.833 4.59304C19.9573 4.65015 20.0686 4.73216 20.1599 4.83398C20.3361 5.0309 20.4272 5.28953 20.4133 5.55339C20.3994 5.81725 20.2816 6.06488 20.0857 6.24219L17.1521 8.89453L17.7087 9.44727L20.1228 11.8613C20.2159 11.9542 20.2898 12.0646 20.3402 12.1861C20.3907 12.3076 20.4166 12.4378 20.4166 12.5693C20.4166 12.7009 20.3907 12.8311 20.3402 12.9526C20.2898 13.0741 20.2159 13.1844 20.1228 13.2773C20.0299 13.3708 19.9194 13.4449 19.7977 13.4955C19.6761 13.5461 19.5456 13.5721 19.4138 13.5721C19.2821 13.5721 19.1516 13.5461 19.0299 13.4955C18.9082 13.4449 18.7978 13.3708 18.7048 13.2773L16.2927 10.8633L15.6677 10.2344L15.2576 10.6055C13.524 12.1725 10.8212 12.1725 9.08766 10.6055L8.67946 10.2363L8.05446 10.8633L5.64039 13.2773C5.54746 13.3708 5.43699 13.4449 5.31531 13.4955C5.19364 13.5461 5.06317 13.5721 4.9314 13.5721C4.79963 13.5721 4.66916 13.5461 4.54749 13.4955C4.42582 13.4449 4.31534 13.3708 4.22242 13.2773C4.12929 13.1844 4.0554 13.0741 4.00499 12.9526C3.95457 12.8311 3.92862 12.7009 3.92862 12.5693C3.92862 12.4378 3.95457 12.3076 4.00499 12.1861C4.0554 12.0646 4.12929 11.9542 4.22242 11.8613L6.63649 9.44727L7.19313 8.89453L4.25953 6.24219C4.06363 6.06488 3.94586 5.81725 3.93196 5.55339C3.91806 5.28953 4.00914 5.0309 4.18533 4.83398C4.27694 4.73132 4.38875 4.64868 4.51377 4.59121C4.63879 4.53374 4.7743 4.50269 4.91187 4.5Z" fill="white"/>
</svg>
