<svg width="36" height="36" viewBox="0 0 36 36" fill="none" xmlns="http://www.w3.org/2000/svg">
<path d="M13.1381 9.09033H23.1684C21.6802 8.28137 19.9712 7.82084 18.1532 7.82084C16.3352 7.82084 14.6262 8.28137 13.1381 9.09033Z" fill="white"/>
<path d="M18.1533 28.4558C20.1527 28.4558 22.0205 27.8988 23.6074 26.9337H12.6991C14.286 27.8988 16.1538 28.4558 18.1533 28.4558Z" fill="white"/>
<path d="M10.103 9.09033C12.211 7.27439 14.9659 6.17455 17.9807 6.17455C20.9954 6.17455 23.7505 7.27439 25.8585 9.09033H33.9493L32.737 7.10207L29.5696 8.50525C29.1319 7.98523 28.6593 7.49504 28.155 7.03839L29.7312 3.95133L27.4015 2.41423L25.2012 4.94692C24.5626 4.60123 23.8958 4.30001 23.2053 4.04719L23.4728 0.655185L20.7272 0.109389L19.6851 3.21988C19.1217 3.15676 18.5492 3.12321 17.9688 3.12321C17.7586 3.12321 17.5499 3.12855 17.3419 3.13696L16.4617 0.122966L16.4038 0.132263L16.3669 0.00011158L13.5972 0.40932L13.6905 3.73278C12.9524 3.94834 12.2379 4.21805 11.5515 4.53763L9.42601 2.09094L7.09624 3.62804L8.51856 6.41386C7.92664 6.88482 7.37133 7.39886 6.85768 7.95161L3.84534 6.61713L2.39893 8.9893L2.52968 9.09033H10.103Z" fill="white"/>
<path d="M25.9395 26.9338C23.8211 28.7919 21.0344 29.9208 17.9806 29.9208C14.9269 29.9208 12.1401 28.7919 10.0218 26.9338H2.3208L3.51847 28.8981L6.39241 27.6249C6.87599 28.1965 7.40206 28.7315 7.96571 29.2256L6.52427 32.0488L8.85404 33.586L10.8938 31.238C11.5775 31.5976 12.2925 31.9069 13.0337 32.1606L12.7827 35.3449L15.5282 35.8907L16.5268 32.91C17.0015 32.9545 17.4822 32.9782 17.9687 32.9782C18.2944 32.9782 18.6174 32.9667 18.9381 32.9466L19.7937 35.8771L19.8516 35.8679L19.8887 36L22.6583 35.5907L22.565 32.272C23.2932 32.0418 23.9972 31.7584 24.6726 31.4265L26.8295 33.9093L29.1592 32.3721L27.68 29.4749C28.2346 29.0131 28.7549 28.5125 29.237 27.9773L32.4101 29.3831L33.8565 27.0108L33.7569 26.9338H25.9395Z" fill="white"/>
<path d="M26.1317 18.8744C24.8658 18.8676 24.6584 19.7144 24.6584 19.7144C24.6584 19.7144 24.9634 18.9948 26.1317 19.0036V18.8744Z" fill="#ED1C24"/>
<path d="M27.9225 13.9856V18.0171C27.9997 18.0201 28.0771 18.0238 28.1546 18.0276V14.0349L29.3549 12.9237H29.0696L27.9225 13.9856Z" fill="#ED1C24"/>
<path d="M32.0366 19.0805V18.945C31.5595 19.0922 30.3769 19.3003 27.9225 18.9698V23.4046L29.3106 24.7054H24.8163L24.9266 24.9163H29.7062L28.1546 23.4538L28.2026 19.1186C30.3275 19.4047 31.4508 19.2127 32.0366 19.0805Z" fill="#ED1C24"/>
<path d="M34.0596 14.0349L35.2598 12.9237H34.9745L33.8274 13.9856V23.4046L35.2156 24.7054H30.7213L30.8315 24.9163H35.6112L34.0596 23.4538V14.0349Z" fill="#ED1C24"/>
<path d="M16.5671 12.9765L15.4044 14.1267L18.5068 22.6284L18.6162 22.3414L15.6366 14.1759L16.849 12.9765H16.5671Z" fill="#ED1C24"/>
<path d="M24.8441 10.5007C24.4443 10.8453 24.088 11.2863 23.8773 11.5938C23.1641 12.6345 22.3581 14.6912 22.3581 14.6912L18.9348 23.5104L20.1069 24.6348H15.5623L15.656 24.8457H20.5025L19.167 23.5596L22.5902 14.7404C22.5902 14.7404 23.3916 12.6805 24.1095 11.643C24.6129 10.9154 25.55 10.0839 25.55 10.0839C25.55 10.0839 25.2573 10.2713 24.8441 10.5007Z" fill="#ED1C24"/>
<path d="M22.9841 10.8733C21.5646 11.4526 20.6241 11.3648 20.6241 11.3648C20.6241 11.3648 21.1155 11.6877 21.3162 12.8043C21.4278 13.4256 21.0996 14.4299 21.0996 14.4299L18.0474 22.4347L14.9598 13.9734L16.1665 12.7798H11.9432L13.2918 13.9734L16.6278 23.3124L15.3857 24.1902H19.396L18.4732 23.3124L21.8804 14.5353C21.8804 14.5353 22.5989 12.6488 23.3923 11.4526C23.8899 10.674 24.8259 9.90092 24.8259 9.90092C24.8259 9.90092 23.877 10.509 22.9841 10.8733Z" fill="#ED1C24"/>
<path d="M33.295 13.8332L34.4895 12.7273H30.3372C30.3372 12.7273 31.5128 13.763 31.5128 13.7981V17.847C30.2989 18.1087 28.8259 17.9005 27.4181 17.8455V13.8332L28.6126 12.7273H24.4604C24.4604 12.7273 25.6358 13.763 25.6358 13.7981V17.919C24.3074 18.1892 23.9387 19.4858 23.9387 19.4858C23.9387 19.4858 24.3262 18.8355 25.6358 18.6988V23.3126L24.612 24.2605H28.5558L27.4181 23.2073V18.7936C29.8609 19.1225 31.0378 18.9154 31.5128 18.7689V23.3126L30.4889 24.2605H34.4326L33.295 23.2073V13.8332Z" fill="#ED1C24"/>
<path d="M2.80419 18.8744C1.53834 18.8676 1.33105 19.7144 1.33105 19.7144C1.33105 19.7144 1.63597 18.9948 2.80419 19.0036V18.8744Z" fill="#ED1C24"/>
<path d="M4.59497 13.9856V18.0171C4.67215 18.0201 4.74961 18.0238 4.82714 18.0276V14.0349L6.02732 12.9237H5.74202L4.59497 13.9856Z" fill="#ED1C24"/>
<path d="M8.70924 19.0805V18.945C8.23211 19.0922 7.0495 19.3003 4.595 18.9698V23.4046L5.98315 24.7054H1.48889L1.59909 24.9163H6.37874L4.82717 23.4538L4.87521 19.1186C7.00015 19.4047 8.12337 19.2127 8.70924 19.0805Z" fill="#ED1C24"/>
<path d="M10.7322 14.0349L11.9323 12.9237H11.647L10.5 13.9856V23.4046L11.8881 24.7054H7.3938L7.50409 24.9163H12.2837L10.7322 23.4538V14.0349Z" fill="#ED1C24"/>
<path d="M9.9675 13.8332L11.162 12.7273H7.0097C7.0097 12.7273 8.18521 13.763 8.18521 13.7981V17.847C6.97139 18.1087 5.49841 17.9005 4.09062 17.8455V13.8332L5.28509 12.7273H1.13281C1.13281 12.7273 2.30837 13.763 2.30837 13.7981V17.919C0.979847 18.1892 0.611206 19.4858 0.611206 19.4858C0.611206 19.4858 0.998744 18.8355 2.30837 18.6988V23.3126L1.28453 24.2605H5.22823L4.09062 23.2073V18.7936C6.53339 19.1225 7.71045 18.9154 8.18521 18.7689V23.3126L7.16134 24.2605H11.1051L9.9675 23.2073V13.8332Z" fill="#ED1C24"/>
</svg>
