<svg width="24" height="24" viewBox="0 0 24 24" fill="none" xmlns="http://www.w3.org/2000/svg">
<path fill-rule="evenodd" clip-rule="evenodd" d="M3.80238 2C3.00669 2 2.36121 2.62583 2.36121 3.39684V20.1036C2.36121 20.8747 3.00676 21.5 3.80238 21.5H20.42C21.216 21.5 21.8612 20.8746 21.8612 20.1034V3.39684C21.8612 2.62583 21.216 2 20.42 2H3.80238ZM8.28691 9.54002V18.319H5.36892V9.54002H8.28691ZM8.47924 6.82502C8.47924 7.66748 7.84588 8.34161 6.82852 8.34161L6.8094 8.34153C5.83006 8.34153 5.19692 7.66741 5.19692 6.82495C5.19692 5.96337 5.84918 5.30806 6.84787 5.30806C7.84588 5.30806 8.4602 5.96337 8.47924 6.82502ZM12.8198 18.319H9.90206C9.90206 18.319 9.9403 10.3639 9.90221 9.54032H12.8201V10.7829C13.2079 10.1849 13.9021 9.3342 15.4499 9.3342C17.3696 9.3342 18.809 10.589 18.809 13.2854V18.319H15.8913V13.623C15.8913 12.4427 15.4688 11.6377 14.4132 11.6377C13.6069 11.6377 13.1268 12.1806 12.916 12.705C12.8389 12.8922 12.8198 13.1549 12.8198 13.4169V18.319Z" fill="white"/>
</svg>
