<svg width="36" height="24" viewBox="0 0 36 24" fill="none" xmlns="http://www.w3.org/2000/svg">
<rect x="0.611206" y="0.5" width="34" height="23" rx="3.5" fill="white" stroke="#D9D9D9"/>
<path fill-rule="evenodd" clip-rule="evenodd" d="M17.8612 17.1569C16.6696 18.1852 15.124 18.806 13.435 18.806C9.66631 18.806 6.61121 15.7154 6.61121 11.903C6.61121 8.09057 9.66631 5 13.435 5C15.124 5 16.6696 5.62075 17.8612 6.64903C19.0528 5.62075 20.5985 5 22.2874 5C26.0561 5 29.1112 8.09057 29.1112 11.903C29.1112 15.7154 26.0561 18.806 22.2874 18.806C20.5985 18.806 19.0528 18.1852 17.8612 17.1569Z" fill="#ED0006"/>
<path fill-rule="evenodd" clip-rule="evenodd" d="M17.8612 17.1569C19.3284 15.8908 20.2587 14.0068 20.2587 11.903C20.2587 9.79917 19.3284 7.91517 17.8612 6.64903C19.0528 5.62075 20.5984 5 22.2874 5C26.0561 5 29.1112 8.09057 29.1112 11.903C29.1112 15.7154 26.0561 18.806 22.2874 18.806C20.5984 18.806 19.0528 18.1852 17.8612 17.1569Z" fill="#F9A000"/>
<path fill-rule="evenodd" clip-rule="evenodd" d="M17.8613 6.64917C19.3284 7.9153 20.2588 9.79929 20.2588 11.9031C20.2588 14.0069 19.3284 15.8909 17.8613 17.157C16.3941 15.8909 15.4637 14.0069 15.4637 11.9031C15.4637 9.79929 16.3941 7.9153 17.8613 6.64917Z" fill="#FF5E00"/>
</svg>
