<svg width="25" height="24" viewBox="0 0 25 24" fill="none" xmlns="http://www.w3.org/2000/svg">
<path d="M12.3612 22C17.8841 22 22.3612 17.5228 22.3612 12C22.3612 6.47715 17.8841 2 12.3612 2C6.83836 2 2.36121 6.47715 2.36121 12C2.36121 17.5228 6.83836 22 12.3612 22Z" fill="white"/>
<path d="M13.3137 11.2348L17.0368 7H16.1547L12.9204 10.6762L10.3391 7H7.36121L11.2655 12.5596L7.36121 17H8.24335L11.6567 13.1169L14.3833 17H17.3612L13.3137 11.2348ZM12.1051 12.6084L11.7089 12.0544L8.56147 7.65073H9.91663L12.4574 11.206L12.852 11.7599L16.1543 16.381H14.7991L12.1051 12.6084Z" fill="#333333"/>
</svg>
