<svg width="36" height="24" viewBox="0 0 36 24" fill="none" xmlns="http://www.w3.org/2000/svg">
<rect x="0.611206" y="0.5" width="34" height="23" rx="3.5" fill="white" stroke="#D9D9D9"/>
<path fill-rule="evenodd" clip-rule="evenodd" d="M10.7365 16.2582H8.61614L7.02616 10.1924C6.95069 9.91334 6.79045 9.66667 6.55475 9.5504C5.96652 9.25823 5.31832 9.0257 4.61121 8.90843V8.6749H8.02688C8.49829 8.6749 8.85185 9.0257 8.91078 9.43313L9.73575 13.8086L11.855 8.6749H13.9164L10.7365 16.2582ZM15.095 16.2582H13.0925L14.7414 8.6749H16.7439L15.095 16.2582ZM19.3346 10.7757C19.3935 10.3673 19.7471 10.1337 20.1595 10.1337C20.8077 10.0751 21.5138 10.1924 22.1031 10.4835L22.4566 8.85081C21.8674 8.61727 21.2192 8.5 20.631 8.5C18.6874 8.5 17.2732 9.55041 17.2732 11.0082C17.2732 12.1173 18.2749 12.6996 18.982 13.0504C19.7471 13.4002 20.0417 13.6338 19.9828 13.9835C19.9828 14.5082 19.3935 14.7418 18.8053 14.7418C18.0982 14.7418 17.391 14.5669 16.7439 14.2747L16.3903 15.9085C17.0974 16.1996 17.8624 16.3169 18.5696 16.3169C20.7488 16.3745 22.1031 15.3251 22.1031 13.75C22.1031 11.7665 19.3346 11.6502 19.3346 10.7757ZM29.1112 16.2582L27.5212 8.6749H25.8134C25.4598 8.6749 25.1063 8.90843 24.9884 9.25823L22.0442 16.2582H24.1056L24.517 15.1502H27.0498L27.2855 16.2582H29.1112ZM26.108 10.7171L26.6962 13.5751H25.0473L26.108 10.7171Z" fill="#172B85"/>
</svg>
