<svg width="25" height="18" viewBox="0 0 25 18" fill="none" xmlns="http://www.w3.org/2000/svg">
<path d="M24.1794 4.20005C24.1794 4.20005 23.945 2.54536 23.2231 1.8188C22.3091 0.862549 21.2872 0.857861 20.8185 0.801611C17.4622 0.557861 12.4231 0.557861 12.4231 0.557861H12.4138C12.4138 0.557861 7.37471 0.557861 4.01846 0.801611C3.54971 0.857861 2.52783 0.862549 1.61377 1.8188C0.891895 2.54536 0.662207 4.20005 0.662207 4.20005C0.662207 4.20005 0.418457 6.14536 0.418457 8.08599V9.90474C0.418457 11.8454 0.65752 13.7907 0.65752 13.7907C0.65752 13.7907 0.891894 15.4454 1.60908 16.1719C2.52314 17.1282 3.72314 17.0954 4.25752 17.1985C6.17939 17.3813 12.4185 17.4375 12.4185 17.4375C12.4185 17.4375 17.4622 17.4282 20.8185 17.1891C21.2872 17.1329 22.3091 17.1282 23.2231 16.1719C23.945 15.4454 24.1794 13.7907 24.1794 13.7907C24.1794 13.7907 24.4185 11.85 24.4185 9.90474V8.08599C24.4185 6.14536 24.1794 4.20005 24.1794 4.20005ZM9.93877 12.1125V5.36724L16.4216 8.75161L9.93877 12.1125Z" fill="white"/>
</svg>
